<svg width="25px" height="25px" viewBox="0 0 0.5 0.5" xmlns="http://www.w3.org/2000/svg" fill="none"><path fill="#1877F2" d="M0.469 0.25a0.219 0.219 0 0 0 -0.219 -0.219 0.219 0.219 0 0 0 -0.034 0.435v-0.153H0.16V0.25h0.056V0.202c0 -0.055 0.033 -0.085 0.083 -0.085 0.024 0 0.049 0.004 0.049 0.004v0.054h-0.028c-0.027 0 -0.036 0.017 -0.036 0.034V0.25h0.061l-0.01 0.063H0.284v0.153A0.219 0.219 0 0 0 0.469 0.25"/><path fill="#ffffff" d="M0.335 0.313 0.345 0.25H0.284V0.209c0 -0.017 0.008 -0.034 0.036 -0.034h0.028V0.121s-0.025 -0.004 -0.049 -0.004c-0.05 0 -0.083 0.03 -0.083 0.085V0.25H0.16v0.063h0.056v0.153a0.219 0.219 0 0 0 0.068 0v-0.153z"/></svg>