<svg width="25px" height="25px" viewBox="0 0 1.5 1.5" fill="none" xmlns="http://www.w3.org/2000/svg"><path cx="24" cy="24" r="20" fill="#C13584" d="M1.375 0.75A0.625 0.625 0 0 1 0.75 1.375A0.625 0.625 0 0 1 0.125 0.75A0.625 0.625 0 0 1 1.375 0.75z"/><path d="M0.75 0.443c0.1 0 0.112 0 0.152 0.002 0.037 0.002 0.056 0.008 0.07 0.013 0.018 0.007 0.03 0.015 0.043 0.028s0.021 0.026 0.028 0.043c0.005 0.013 0.011 0.033 0.013 0.07 0.002 0.04 0.002 0.051 0.002 0.152s0 0.112 -0.002 0.152c-0.002 0.037 -0.008 0.056 -0.013 0.07 -0.007 0.018 -0.015 0.03 -0.028 0.043s-0.026 0.021 -0.043 0.028c-0.013 0.005 -0.033 0.011 -0.07 0.013 -0.04 0.002 -0.051 0.002 -0.152 0.002s-0.112 0 -0.152 -0.002c-0.037 -0.002 -0.056 -0.008 -0.07 -0.013a0.116 0.116 0 0 1 -0.043 -0.028c-0.013 -0.013 -0.021 -0.026 -0.028 -0.043 -0.005 -0.013 -0.011 -0.033 -0.013 -0.07 -0.002 -0.04 -0.002 -0.051 -0.002 -0.152 0 -0.1 0 -0.112 0.002 -0.151 0.002 -0.037 0.008 -0.056 0.013 -0.07 0.007 -0.018 0.015 -0.03 0.028 -0.043s0.026 -0.021 0.043 -0.028c0.013 -0.005 0.033 -0.011 0.07 -0.013 0.04 -0.002 0.051 -0.002 0.152 -0.002M0.75 0.375c-0.102 0 -0.115 0 -0.155 0.002 -0.04 0.002 -0.067 0.008 -0.091 0.017a0.184 0.184 0 0 0 -0.066 0.043 0.184 0.184 0 0 0 -0.043 0.066c-0.009 0.024 -0.016 0.051 -0.017 0.091C0.375 0.635 0.375 0.648 0.375 0.75s0 0.115 0.002 0.155c0.002 0.04 0.008 0.067 0.017 0.091 0.01 0.025 0.022 0.046 0.043 0.066a0.184 0.184 0 0 0 0.066 0.043c0.024 0.009 0.051 0.016 0.091 0.017 0.04 0.002 0.053 0.002 0.155 0.002s0.115 0 0.155 -0.002c0.04 -0.002 0.067 -0.008 0.091 -0.017a0.184 0.184 0 0 0 0.066 -0.043 0.184 0.184 0 0 0 0.043 -0.066c0.009 -0.024 0.016 -0.051 0.017 -0.091 0.002 -0.04 0.002 -0.053 0.002 -0.155s0 -0.115 -0.002 -0.155c-0.002 -0.04 -0.008 -0.067 -0.017 -0.091a0.184 0.184 0 0 0 -0.043 -0.066 0.184 0.184 0 0 0 -0.066 -0.043c-0.024 -0.009 -0.051 -0.016 -0.091 -0.017C0.865 0.375 0.852 0.375 0.75 0.375" fill="white"/><path d="M0.75 0.558a0.193 0.193 0 1 0 0 0.385 0.193 0.193 0 0 0 0 -0.385m0 0.318a0.125 0.125 0 1 1 0 -0.25 0.125 0.125 0 0 1 0 0.25" fill="white"/><path d="M0.995 0.55a0.045 0.045 0 1 1 -0.09 0 0.045 0.045 0 0 1 0.09 0" fill="white"/></svg>