<svg width="25px" height="25px" viewBox="0 0 0.75 0.75" id="meteor-icon-kit__solid-whatsapp" fill="none" xmlns="http://www.w3.org/2000/svg"><path fill-rule="evenodd" clip-rule="evenodd" d="M0.641 0.109A0.369 0.369 0 0 0 0.378 0C0.173 0 0.007 0.167 0.007 0.371a0.371 0.371 0 0 0 0.05 0.186L0.004 0.75l0.197 -0.052a0.372 0.372 0 0 0 0.178 0.045h0c0.205 0 0.371 -0.167 0.372 -0.371a0.369 0.369 0 0 0 -0.109 -0.263m-0.093 0.34c-0.009 -0.005 -0.055 -0.027 -0.063 -0.03s-0.015 -0.005 -0.021 0.005c-0.006 0.009 -0.024 0.03 -0.029 0.036 -0.005 0.006 -0.011 0.007 -0.02 0.002s-0.039 -0.014 -0.075 -0.046c-0.028 -0.025 -0.046 -0.055 -0.052 -0.064s-0.001 -0.014 0.004 -0.019c0.004 -0.004 0.009 -0.011 0.014 -0.016s0.006 -0.009 0.009 -0.015c0.003 -0.006 0.002 -0.012 -0.001 -0.016s-0.021 -0.05 -0.029 -0.069c-0.008 -0.018 -0.015 -0.016 -0.021 -0.016 -0.005 0 -0.012 0 -0.018 0a0.034 0.034 0 0 0 -0.025 0.012c-0.009 0.009 -0.032 0.032 -0.032 0.077s0.033 0.09 0.038 0.096c0.005 0.006 0.065 0.1 0.159 0.14q0.026 0.011 0.053 0.02c0.022 0.007 0.042 0.006 0.058 0.004 0.018 -0.003 0.055 -0.022 0.063 -0.044 0.008 -0.022 0.008 -0.04 0.005 -0.044 -0.002 -0.004 -0.008 -0.006 -0.018 -0.011z" fill="#758CA3"/></svg>